<?xml version="1.0" encoding="UTF-8" standalone="no"?>
<!-- Created with Inkscape (http://www.inkscape.org/) -->

<svg
   width="32"
   height="32"
   viewBox="0 0 32 32"
   version="1.1"
   id="svg1"
   xmlns="http://www.w3.org/2000/svg"
   xmlns:svg="http://www.w3.org/2000/svg">
  <defs
     id="defs1" />
  <g
     id="layer1">
    <g
       id="layer1-5"
       transform="matrix(0.06774155,0,0,0.06755918,-3.9625814,0.06583674)">
      <path
         style="fill:#ffcc00;stroke-width:0.264583"
         d="m 160.73576,-2.1254315 282.15104,0.5313579 c 0,0 9.56443,-0.265679 15.67506,0.79703677 6.1106,1.06271577 19.39454,4.51654183 22.84838,7.17333133 3.45382,2.6567894 11.95554,5.8449365 15.94072,9.2987625 3.98518,3.453827 10.62718,9.298763 13.01827,13.01827 2.39112,3.719504 9.56445,11.955552 12.22124,18.863204 2.65678,6.907651 8.50172,13.815303 8.50172,33.741224 0,19.925925 0,307.656225 0,307.656225 0,0 -0.26567,8.23603 -1.32839,12.75257 -1.0627,4.51654 -2.65679,15.40939 -6.90764,21.51999 -4.25087,6.11063 -5.0479,9.83012 -11.95557,17.53481 -6.90763,7.7047 -12.75257,13.28396 -23.11405,19.1289 -10.36148,5.84494 -17.53481,8.76739 -21.51999,9.83012 -3.98521,1.0627 -6.90766,2.65679 -20.45729,2.65679 -13.54963,0 -305.79646,0 -305.79646,0 0,0 -14.08098,0.53136 -26.83357,-5.57927 -12.75259,-6.11061 -22.848391,-11.15851 -27.630613,-16.73776 -4.782219,-5.57926 -12.752588,-12.7526 -15.940735,-18.8632 -3.188148,-6.11063 -8.501727,-15.94075 -10.095799,-22.31705 -1.594075,-6.3763 -3.453826,10.09581 -3.188147,-20.72296 0.265678,-30.81874 0.531357,-305.79645 0.531357,-305.79645 0,0 0,-14.612339 3.719505,-24.176783 C 64.294302,48.619245 74.390104,31.615795 79.438002,26.567894 84.485902,21.519994 101.22368,9.0330839 105.47454,7.1733314 109.7254,5.3135789 124.8691,0 131.2454,-1.0627157 c 6.37629,-1.0627158 29.49036,-1.0627158 29.49036,-1.0627158 z"
         id="path14" />
      <path
         style="fill:#d45500;stroke-width:0.264583"
         d="m 186.9436,145.12015 51.10753,-50.566712 4.95752,-4.957521 c 0,0 2.52383,-3.154786 8.02217,-4.146288 5.49834,-0.991505 11.08681,0 13.2501,1.261914 2.16328,1.261914 5.58847,3.064647 7.75175,6.760255 2.16329,3.695604 2.7041,5.858888 2.79424,12.438872 0.0901,6.57998 -7.8419,13.43037 -7.8419,13.43037 l -33.08018,32.80977 -43.17549,42.90509 c 0,0 -2.61397,2.7041 -5.67862,3.78574 -3.06465,1.08164 -5.04765,1.35206 -8.65312,1.08164 -3.60547,-0.27041 -9.19395,-2.16328 -11.08682,-3.96601 -1.89287,-1.80274 -5.49834,-5.31807 -6.67012,-11.5375 -1.17178,-6.21944 1.44219,-10.90655 1.89287,-11.89805 0.45068,-0.99151 26.41007,-27.40157 26.41007,-27.40157 z"
         id="path12" />
      <path
         style="fill:#d45500;stroke-width:0.264583"
         d="m 346.25057,144.84816 51.10753,-50.566707 4.95752,-4.957521 c 0,0 2.52383,-3.154786 8.02217,-4.146288 5.49834,-0.991505 11.08681,0 13.2501,1.261914 2.16328,1.261914 5.58847,3.064647 7.75175,6.760255 2.16329,3.695604 2.7041,5.858888 2.79424,12.438867 0.0901,6.57998 -7.8419,13.43037 -7.8419,13.43037 l -33.08018,32.80977 -43.17549,42.90509 c 0,0 -2.61397,2.7041 -5.67862,3.78574 -3.06465,1.08164 -5.04765,1.35206 -8.65312,1.08164 -3.60547,-0.27041 -9.19395,-2.16328 -11.08682,-3.96601 -1.89287,-1.80274 -5.49834,-5.31807 -6.67012,-11.5375 -1.17178,-6.21944 1.44219,-10.90655 1.89287,-11.89805 0.45068,-0.99151 26.41007,-27.40157 26.41007,-27.40157 z"
         id="path12-9" />
      <path
         style="fill:#d45500;stroke-width:0.264583"
         d="m 179.69286,212.62425 228.21362,0.0922 c 0,0 4.9812,-1.19918 10.88488,2.30612 5.90367,3.50531 4.15102,1.75266 7.65633,5.07347 3.5053,3.32081 5.90367,7.65632 6.54936,10.33142 0.64571,2.67509 1.47592,4.79672 1.47592,9.22447 0,4.42775 0.0923,78.13134 0.0923,78.13134 0,0 0.55346,5.07347 -1.75265,10.51592 -2.30613,5.44243 -3.59756,7.56407 -7.28734,10.3314 -3.6898,2.76735 -4.42775,3.87429 -8.67103,5.16572 -4.24325,1.29143 -5.44242,1.4759 -15.40486,1.4759 -9.96244,0 -138.09046,0.18449 -138.09046,0.18449 l -37.72813,37.82037 c 0,0 -1.75265,1.47592 -4.79673,2.21387 -3.04407,0.73798 -3.41305,1.10694 -7.74856,-0.18447 -4.3355,-1.29143 -6.73387,-2.30613 -7.93305,-4.7045 -1.19918,-2.39837 -3.68979,-2.12162 -3.78203,-8.48651 -0.0922,-6.3649 0,-26.75099 0,-26.75099 l -23.0612,0.0922 c 0,0 -1.56817,1.10694 -7.47183,-1.75265 -5.90367,-2.85959 -8.30203,-4.51998 -10.7004,-7.74856 -2.39836,-3.22855 -6.08816,-7.01059 -6.45714,-12.63753 -0.36897,-5.62692 -0.18448,-87.35582 -0.18448,-87.35582 0,0 0.55346,-4.3355 2.12163,-7.0106 1.56816,-2.6751 1.56816,-3.78204 4.24326,-6.64163 2.6751,-2.85959 3.04408,-3.87428 6.82611,-5.81142 3.78204,-1.93714 5.53469,-2.95183 8.48652,-3.41306 2.95184,-0.46122 4.52,-0.46122 4.52,-0.46122 z"
         id="path13" />
    </g>
  </g>
</svg>
